HIERARCHY
ROOT Hips
{
	OFFSET 0.000000 88.474243 0.000000
	CHANNELS 6 Xposition Yposition Zposition Zrotation Yrotation Xrotation 
	JOINT Hips_Spine
	{
		OFFSET 0.000000 0.000000 0.000000
		CHANNELS 3 Zrotation Yrotation Xrotation
		JOINT Spine
		{
			OFFSET 0.005100 8.711998 -0.691000
			CHANNELS 3 Zrotation Yrotation Xrotation
			JOINT Spine1
			{
				OFFSET -0.009200 8.660301 -1.275000
				CHANNELS 3 Zrotation Yrotation Xrotation
				JOINT Spine2
				{
					OFFSET 0.006300 9.852501 -1.857000
					CHANNELS 3 Zrotation Yrotation Xrotation
					JOINT Spine2_Neck
					{
						OFFSET 0.000000 0.000000 0.000000
						CHANNELS 3 Zrotation Yrotation Xrotation
						JOINT Neck
						{
							OFFSET 0.016300 11.420799 -0.263300
							CHANNELS 3 Zrotation Yrotation Xrotation
							End Site #name: Head
							{
								OFFSET -0.019200 9.262405 2.362500
							}
						}
					}
					JOINT Spine2_LeftShoulder
					{
						OFFSET 0.000000 0.000000 0.000000
						CHANNELS 3 Zrotation Yrotation Xrotation
						JOINT LeftShoulder
						{
							OFFSET 5.616900 6.732201 -0.345700
							CHANNELS 3 Zrotation Yrotation Xrotation
							JOINT LeftArm
							{
								OFFSET 10.664888 -0.183372 -2.440700
								CHANNELS 3 Zrotation Yrotation Xrotation
								JOINT LeftForeArm
								{
									OFFSET 27.459126 0.000000 0.000000
									CHANNELS 3 Zrotation Yrotation Xrotation
									End Site #name: LeftHand
									{
										OFFSET 21.306858 0.000000 0.000000
									}
								}
							}
						}
					}
					JOINT Spine2_RightShoulder
					{
						OFFSET 0.000000 0.000000 0.000000
						CHANNELS 3 Zrotation Yrotation Xrotation
						JOINT RightShoulder
						{
							OFFSET -5.580300 6.737503 -0.344400
							CHANNELS 3 Zrotation Yrotation Xrotation
							JOINT RightArm
							{
								OFFSET -10.679335 -0.188484 -2.383900
								CHANNELS 3 Zrotation Yrotation Xrotation
								JOINT RightForeArm
								{
									OFFSET -27.503529 0.000000 0.000000
									CHANNELS 3 Zrotation Yrotation Xrotation
									End Site #name: RightHand
									{
										OFFSET -21.306808 0.000000 0.000000
									}
								}
							}
						}
					}
				}
			}
		}
	}
	JOINT Hips_LeftUpLeg
	{
		OFFSET 0.000000 0.000000 0.000000
		CHANNELS 3 Zrotation Yrotation Xrotation
		JOINT LeftUpLeg
		{
			OFFSET 6.857700 -6.739601 0.312100
			CHANNELS 3 Zrotation Yrotation Xrotation
			JOINT LeftLeg
			{
				OFFSET -0.367590 -34.731552 -4.572400
				CHANNELS 3 Zrotation Yrotation Xrotation
				End Site #name: LeftFoot
				{
					OFFSET 0.367590 -34.656704 -6.067400
				}
			}
		}
	}
	JOINT Hips_RightUpLeg
	{
		OFFSET 0.000000 0.000000 0.000000
		CHANNELS 3 Zrotation Yrotation Xrotation
		JOINT RightUpLeg
		{
			OFFSET -6.876100 -6.733299 0.301000
			CHANNELS 3 Zrotation Yrotation Xrotation
			JOINT RightLeg
			{
				OFFSET 0.347353 -34.795158 -4.515900
				CHANNELS 3 Zrotation Yrotation Xrotation
				End Site #name: RightFoot
				{
					OFFSET -0.347353 -34.589367 -6.070300
				}
			}
		}
	}
}
MOTION
Frames: 13
Frame Time: 0.041667
-0.068453 0.163181 -0.055359 -0.778264 1.701386 12.058893 0.000000 -0.000000 -0.000000 -0.141940 0.663500 10.446188 -1.501159 -0.117844 9.522405 0.000000 0.000000 0.000000 -1.207902 -0.724904 9.411136 1.176259 1.889931 -8.112141 -1.247866 -1.308499 11.194434 -17.958759 -0.847616 2.082386 -57.049994 -9.524313 10.673810 -1.865424 -31.863097 2.053563 -1.269901 -0.312718 9.681791 19.119862 -4.176420 0.513481 68.327236 0.956122 32.032598 -0.664271 17.297893 1.795153 0.000000 0.000000 0.000000 3.913530 14.172855 -52.872948 2.128674 3.508776 55.485207 -0.000000 0.000000 0.000000 -1.496998 -5.506169 -45.953170 -0.394429 -0.836832 47.710973 
-0.270673 0.244387 -0.243760 -0.661912 2.885950 16.619347 0.000000 -0.000000 -0.000000 -1.685926 -0.619120 8.092863 -1.125501 -0.546133 8.913085 0.000000 0.000000 0.000000 -1.138672 -0.694555 8.349102 -0.275866 1.043202 -9.054652 -0.944189 -0.819961 8.990369 -14.478285 -4.825399 2.148624 -59.419465 -11.791468 7.837631 -0.310354 -32.972145 0.128958 -1.030790 -0.614945 9.266708 17.026066 -1.889467 2.012308 66.093888 12.757740 14.361924 0.170508 30.524088 0.165689 0.000000 0.000000 -0.000000 3.874522 12.206012 -57.505210 1.727965 4.234565 53.798217 -0.000000 -0.000000 0.000000 -1.200914 -5.712709 -50.064874 -2.322105 -3.191733 47.651512 
-0.414350 0.504550 -0.114433 -0.748897 3.212946 18.658745 0.000000 -0.000000 -0.000000 -1.314258 -0.339804 8.267154 -0.651636 -0.619504 8.429175 0.000000 0.000000 0.000000 -0.820474 -0.798152 8.618635 -2.190012 0.647875 -9.096704 -0.690186 -0.484361 8.375926 -15.874057 -5.105823 2.574963 -55.413139 -11.885910 5.879918 -0.153076 -34.853776 -0.151307 -0.793580 -0.648838 8.117896 15.847268 -1.364705 1.198871 62.635432 14.537063 11.951410 0.137369 36.130209 -0.071209 -0.000000 -0.000000 -0.000000 3.506922 11.953824 -59.664243 2.928618 5.133522 53.274850 -0.000000 -0.000000 0.000000 -0.780105 -5.432790 -51.594259 -3.570929 -4.608691 46.353889 
-0.540697 0.725977 0.098248 -0.705763 3.300089 20.233813 0.000000 -0.000000 -0.000000 -1.434909 -0.395018 8.954859 -0.623436 -0.404359 8.313756 0.000000 0.000000 0.000000 -0.708158 -0.475139 8.512073 -1.227491 0.234977 -9.530768 -0.511770 -0.317369 8.278534 -14.434958 -4.980043 2.432389 -55.396773 -14.946109 5.170462 -0.120636 -36.196415 -0.079588 -0.640427 -0.502418 8.176680 15.097332 -1.433558 0.965255 65.526793 15.322586 10.458392 0.006645 40.279437 -0.203353 -0.000000 -0.000000 -0.000000 3.226134 11.856849 -61.037763 2.860882 5.149614 52.868606 -0.000000 -0.000000 0.000000 -0.339178 -5.668117 -52.606366 -5.026913 -5.507561 45.156019 
-0.752546 0.565843 0.247738 -0.471178 3.445709 21.692758 0.000000 -0.000000 -0.000000 -1.220847 -0.323420 9.493714 -0.531963 -0.342233 8.293948 0.000000 0.000000 0.000000 -0.588876 -0.406701 8.476913 -0.679918 0.217169 -9.988393 -0.384752 -0.357317 8.154102 -12.931203 -4.669666 2.320505 -55.844327 -17.786106 5.271555 -0.073752 -36.357895 -0.110565 -0.524167 -0.418764 8.269948 14.816640 -1.528393 0.988442 66.863153 16.547463 9.595539 0.118157 43.818752 -0.101807 -0.000000 -0.000000 -0.000000 3.094994 11.733933 -62.596833 2.260159 5.132313 52.929953 -0.000000 -0.000000 0.000000 -0.307447 -5.694725 -54.220442 -5.580171 -6.030709 45.476298 
-1.072418 -0.094747 0.298432 -0.252065 3.349234 23.084186 -0.000000 -0.000000 -0.000000 -0.851032 -0.235546 9.570134 -0.384035 -0.319333 8.105118 0.000000 0.000000 0.000000 -0.450961 -0.435711 8.362722 -0.853341 0.207961 -9.900477 -0.244366 -0.444635 8.170892 -12.309345 -4.951097 2.304444 -56.383658 -18.298480 5.689772 -0.045815 -37.326273 -0.163206 -0.380087 -0.484968 8.229772 14.716493 -1.434868 1.111533 66.163565 18.453833 7.552109 0.493545 45.638400 0.330582 -0.000000 -0.000000 -0.000000 3.087440 11.657031 -64.731588 1.635055 5.125757 54.020368 -0.000000 -0.000000 0.000000 -0.247412 -5.565683 -56.765486 -5.667296 -6.139434 47.521931 
-1.470470 -1.048422 0.311799 -0.102547 3.154910 24.371586 -0.000000 -0.000000 -0.000000 -0.526083 -0.198354 9.545553 -0.276953 -0.346982 7.896893 0.000000 0.000000 0.000000 -0.313036 -0.500758 8.181006 -0.999811 0.083776 -9.646159 -0.125624 -0.535773 8.066014 -12.210507 -4.868786 2.174085 -56.499072 -17.829662 6.732194 -0.030708 -38.578296 -0.160340 -0.237509 -0.588936 8.076769 14.912160 -1.519005 1.130760 64.626264 19.812623 6.197522 0.870001 46.650513 0.790991 -0.000000 -0.000000 -0.000000 3.228748 11.756036 -67.049747 1.032265 5.039837 55.692576 -0.000000 -0.000000 0.000000 -0.092292 -5.285584 -59.756500 -5.678657 -6.127906 50.652278 
-1.936067 -2.031267 0.383859 -0.034573 2.926081 25.358008 -0.000000 -0.000000 -0.000000 -0.267145 -0.291356 9.274851 -0.208335 -0.474367 7.694717 0.000000 0.000000 0.000000 -0.211743 -0.639076 7.970040 -1.109638 -0.032210 -9.507528 -0.031199 -0.697769 7.863705 -12.422882 -4.634740 2.056490 -56.307040 -16.836938 7.779908 -0.020690 -40.172662 -0.148824 -0.121017 -0.761715 7.834297 15.282978 -1.852715 1.080721 63.019607 20.320891 5.881193 0.985436 46.882688 0.985381 -0.000000 -0.000000 -0.000000 3.645449 12.004432 -69.006863 0.661456 4.979512 57.488213 -0.000000 -0.000000 0.000000 0.112770 -4.906277 -62.481988 -5.557012 -6.053386 53.935741 
-2.446156 -2.743790 0.607747 -0.026240 2.750910 25.873581 -0.000000 -0.000000 -0.000000 -0.039287 -0.564144 8.668712 -0.124738 -0.813272 7.381560 0.000000 0.000000 0.000000 -0.098699 -0.908059 7.643566 -1.361456 -0.115385 -9.392497 0.099683 -0.992156 7.526973 -12.680253 -4.401401 1.990775 -55.897765 -15.652463 8.746724 -0.022240 -42.323315 -0.129027 0.007158 -1.067203 7.422921 15.866894 -2.482238 0.974712 61.302228 20.714247 5.990968 0.816959 46.557462 0.851578 -0.000000 -0.000000 -0.000000 4.286076 12.416076 -69.941636 0.496968 4.910544 58.726222 -0.000000 -0.000000 0.000000 0.350634 -4.539842 -64.138063 -5.501142 -6.073205 56.282298 
-2.980948 -3.008788 1.038538 -0.101828 2.704264 25.782472 0.000000 -0.000000 -0.000000 0.129628 -1.206410 7.872382 -0.000406 -1.310186 6.891727 0.000000 0.000000 0.000000 0.018710 -1.364161 7.026226 -1.633823 -0.076111 -9.166343 0.209525 -1.447961 6.856347 -12.671921 -4.387742 1.992213 -55.598056 -14.517882 9.478652 -0.062049 -45.668427 -0.127454 0.158557 -1.506340 6.783503 16.393924 -3.245693 0.818305 59.370011 21.431609 7.290948 0.376315 45.865525 0.346625 -0.000000 -0.000000 -0.000000 5.134300 12.921174 -69.519155 0.504390 4.910606 58.975311 -0.000000 -0.000000 0.000000 0.597038 -4.242012 -64.372345 -5.424067 -6.190603 57.364977 
-3.531683 -2.744865 1.683998 -0.274364 2.793657 25.009358 0.000000 -0.000000 -0.000000 0.180075 -1.940682 7.028514 0.085128 -1.823731 6.098514 0.000000 0.000000 0.000000 0.085217 -1.853640 6.129896 -1.784563 0.220883 -8.668331 0.266522 -1.946875 5.869680 -12.301317 -4.708338 2.069701 -56.036694 -13.148517 8.982791 -0.110854 -50.289571 -0.110902 0.267099 -1.996279 5.939467 17.078433 -4.057893 0.621401 58.077535 21.186341 10.994772 -0.189566 48.336052 -0.234097 -0.000000 -0.000000 -0.000000 6.253712 13.521640 -67.528840 0.654631 4.996432 58.031582 -0.000000 -0.000000 0.000000 0.912344 -4.187814 -62.951487 -5.274723 -6.396987 57.113111 
-4.112622 -1.976036 2.526655 -0.545286 3.002403 23.600773 0.000000 -0.000000 -0.000000 -0.021630 -2.325463 5.974207 0.046025 -2.166456 5.057479 0.000000 0.000000 0.000000 0.039873 -2.169862 5.039327 -1.742235 0.620273 -7.731959 0.184748 -2.359936 4.744374 -12.067361 -5.705227 2.294956 -56.956053 -11.322484 7.373369 -0.173014 -56.081328 -0.062187 0.211239 -2.355382 4.774699 17.394044 -4.862560 1.205628 56.549402 20.207981 18.931978 -0.496249 55.177844 -0.443390 -0.000000 -0.000000 -0.000000 7.576505 14.058200 -64.060310 0.903445 5.065921 55.948790 -0.000000 -0.000000 0.000000 1.324266 -4.376470 -59.974630 -4.899211 -6.582509 55.550815 
-4.722864 -0.887286 3.524944 -0.882279 3.316949 21.654256 0.000000 -0.000000 -0.000000 -0.564250 -2.313646 5.225710 -0.208217 -2.317425 3.960656 0.000000 0.000000 0.000000 -0.150325 -2.281451 3.882457 -1.387423 1.061249 -6.419918 -0.067630 -2.474714 3.723917 -11.627528 -7.075923 2.545195 -57.894864 -9.144371 5.972170 -0.308681 -62.780355 0.041473 -0.041813 -2.505271 3.592354 18.330447 -5.229003 1.122972 54.667913 19.460623 26.884640 -0.778367 66.362662 -0.734020 -0.000000 -0.000000 -0.000000 9.020736 14.413091 -59.519840 1.322367 5.158434 53.051383 -0.000000 -0.000000 0.000000 1.833971 -4.847659 -55.821179 -4.480843 -6.758596 52.967034 
